<?xml version="1.0" standalone="no"?>
<!DOCTYPE svg PUBLIC "-//W3C//DTD SVG 20010904//EN"
 "http://www.w3.org/TR/2001/REC-SVG-20010904/DTD/svg10.dtd">
<svg version="1.0" xmlns="http://www.w3.org/2000/svg"
 width="920.000000pt" height="155.000000pt" viewBox="0 0 920.000000 155.000000"
 preserveAspectRatio="xMidYMid meet">

<g transform="translate(0.000000,155.000000) scale(0.100000,-0.100000)"
fill="#000000" stroke="none">
<path d="M5532 1520 c-115 -58 -184 -166 -190 -302 -7 -147 39 -243 201 -420
100 -109 152 -187 168 -251 38 -159 -84 -343 -242 -364 -54 -8 -84 2 -129 43
-65 59 -90 180 -52 254 24 49 55 62 125 55 65 -7 87 3 87 40 0 62 -136 106
-231 73 -53 -18 -93 -53 -125 -110 -26 -48 -29 -62 -29 -148 0 -83 3 -102 28
-151 71 -146 252 -238 441 -226 241 16 434 256 397 494 -19 122 -55 180 -233
378 -137 151 -190 286 -159 402 15 55 68 123 109 140 30 12 34 12 57 -11 35
-35 34 -118 -1 -201 -53 -125 -52 -115 -25 -136 55 -44 112 -13 157 86 62 135
54 229 -25 306 -88 85 -217 104 -329 49z"/>
<path d="M171 1485 c-30 -9 -61 -21 -68 -27 -25 -21 -10 -52 35 -73 33 -16 41
-24 37 -40 -41 -163 -68 -381 -86 -710 -11 -212 -9 -476 5 -506 5 -13 0 -18
-23 -22 -32 -7 -54 -36 -45 -60 15 -39 119 -47 284 -23 112 17 148 29 157 52
9 24 -49 74 -86 74 l-29 0 -4 73 c-9 203 19 630 62 941 15 108 17 148 9 179
-6 21 -9 40 -7 41 2 1 15 7 31 14 33 14 36 50 6 78 -28 26 -198 31 -278 9z"/>
<path d="M8140 1251 c-85 -26 -237 -130 -246 -168 -9 -36 42 -83 89 -83 55 0
297 144 297 177 0 28 -22 55 -55 69 -38 15 -48 16 -85 5z"/>
<path d="M1492 1054 c-33 -23 -30 -75 8 -113 37 -37 120 -58 163 -42 99 38 19
171 -103 171 -25 0 -56 -7 -68 -16z"/>
<path d="M2532 1054 c-33 -23 -30 -75 8 -113 37 -37 120 -58 163 -42 99 38 19
171 -103 171 -25 0 -56 -7 -68 -16z"/>
<path d="M7462 1054 c-33 -23 -30 -75 8 -113 37 -37 120 -58 163 -42 99 38 19
171 -103 171 -25 0 -56 -7 -68 -16z"/>
<path d="M6921 1011 c-70 -25 -101 -49 -131 -102 -33 -59 -33 -145 0 -209 12
-25 69 -90 125 -145 57 -55 111 -116 120 -135 55 -108 -33 -260 -150 -260 -75
0 -135 59 -135 133 0 32 7 45 46 83 45 43 46 45 29 64 -43 47 -131 30 -180
-35 -33 -43 -44 -122 -25 -179 30 -93 138 -181 260 -212 185 -47 352 27 410
183 53 141 3 264 -163 399 -94 76 -120 104 -148 156 -23 45 -24 79 -3 119 19
38 76 64 104 49 27 -14 27 -71 0 -95 -55 -50 16 -98 89 -61 33 18 51 54 51
105 0 114 -162 191 -299 142z"/>
<path d="M4145 961 c-60 -27 -139 -120 -190 -225 -47 -96 -54 -93 -30 14 20
93 19 142 -6 173 -22 30 -88 52 -122 41 -59 -18 -104 -96 -134 -236 -26 -118
-26 -497 -1 -578 24 -78 62 -112 133 -118 89 -7 101 11 151 240 35 158 88 328
124 398 l18 35 7 -30 c13 -57 28 -85 60 -114 87 -76 215 -61 215 25 0 89 -67
317 -107 364 -29 35 -59 38 -118 11z"/>
<path d="M631 934 c-58 -41 -91 -200 -91 -445 0 -92 5 -192 11 -221 24 -111
78 -177 153 -185 63 -8 87 11 110 83 28 90 165 432 198 494 l29 55 -6 -45 c-3
-25 -10 -76 -15 -115 -15 -112 -12 -293 5 -360 28 -106 95 -163 178 -152 75
10 77 16 74 221 -1 107 4 228 12 296 15 131 6 204 -32 262 -46 68 -138 102
-210 79 -66 -22 -146 -131 -203 -276 -34 -87 -47 -103 -40 -50 3 22 11 93 17
157 10 109 10 120 -8 150 -34 60 -131 88 -182 52z"/>
<path d="M8471 934 c-58 -41 -91 -200 -91 -445 0 -92 5 -192 11 -221 24 -111
78 -177 153 -185 63 -8 87 11 110 83 28 90 165 432 198 494 l29 55 -6 -45 c-3
-25 -10 -76 -15 -115 -15 -112 -12 -293 5 -360 28 -106 95 -163 178 -152 75
10 77 16 74 221 -1 107 4 228 12 296 15 131 6 204 -32 262 -46 68 -138 102
-210 79 -66 -22 -146 -131 -203 -276 -34 -87 -47 -103 -40 -50 3 22 11 93 17
157 10 109 10 120 -8 150 -34 60 -131 88 -182 52z"/>
<path d="M3055 922 c-50 -24 -116 -95 -150 -162 -88 -173 -88 -441 0 -556 36
-47 105 -78 161 -71 53 6 73 22 130 106 26 39 45 59 48 50 2 -8 12 -44 21 -82
10 -37 30 -84 45 -105 46 -64 129 -90 178 -56 38 27 43 46 27 120 -24 112 -29
300 -11 477 14 143 14 162 0 197 -9 21 -27 46 -41 55 -31 21 -86 22 -116 2
-20 -13 -25 -12 -61 12 -53 35 -170 41 -231 13z m186 -113 c34 -36 33 -29 15
-152 -13 -81 -23 -113 -66 -196 -28 -55 -61 -112 -73 -127 l-21 -28 -7 25 c-4
13 -7 65 -8 115 -2 163 43 344 93 379 28 21 34 19 67 -16z"/>
<path d="M2065 906 c-149 -69 -275 -323 -275 -556 0 -107 18 -164 73 -226 74
-84 193 -117 285 -79 73 31 169 144 202 238 21 59 15 78 -29 96 -43 18 -61 4
-132 -99 -63 -92 -91 -120 -120 -120 -37 0 -40 185 -4 326 26 103 99 267 133
298 19 17 20 16 37 -33 25 -77 82 -112 119 -75 33 32 9 143 -42 198 -57 61
-158 74 -247 32z"/>
<path d="M8012 880 c-73 -17 -122 -93 -143 -218 -11 -66 -16 -76 -59 -120 -62
-62 -92 -140 -94 -242 0 -59 4 -85 23 -122 40 -83 124 -138 211 -138 132 0
244 124 296 325 24 94 25 279 2 355 -24 78 -76 136 -140 155 -29 8 -54 15 -57
14 -3 -1 -21 -5 -39 -9z m110 -140 c20 -52 23 -137 7 -225 -14 -82 -19 -89
-52 -74 -23 10 -26 17 -25 55 2 33 -3 49 -21 68 -21 23 -23 31 -17 82 6 52 24
101 49 132 18 23 41 8 59 -38z m-94 -390 c17 -8 32 -19 32 -26 0 -13 -50 -83
-73 -103 -15 -12 -17 -9 -17 37 0 57 10 114 19 109 3 -2 21 -10 39 -17z"/>
<path d="M6273 860 c-146 -66 -246 -311 -203 -498 38 -162 172 -282 314 -282
67 0 106 18 106 50 0 21 -54 70 -76 70 -52 0 -92 52 -108 143 -6 32 -4 37 12
37 78 0 193 85 237 174 85 174 -4 327 -189 326 -28 0 -70 -9 -93 -20z m171
-106 c13 -33 6 -116 -13 -152 -31 -60 -112 -135 -128 -118 -10 9 22 147 47
198 36 76 79 110 94 72z"/>
<path d="M1489 802 c-45 -40 -59 -107 -66 -307 -10 -302 28 -393 167 -403 49
-4 60 -1 85 20 28 25 28 25 14 74 -11 38 -13 106 -11 299 2 236 1 252 -18 283
-21 35 -72 62 -115 62 -13 0 -39 -12 -56 -28z"/>
<path d="M2529 802 c-45 -40 -59 -107 -66 -307 -10 -302 28 -393 167 -403 49
-4 60 -1 85 20 28 25 28 25 14 74 -11 38 -13 106 -11 299 2 236 1 252 -18 283
-21 35 -72 62 -115 62 -13 0 -39 -12 -56 -28z"/>
<path d="M7459 802 c-45 -40 -59 -107 -66 -307 -10 -302 28 -393 167 -403 49
-4 60 -1 85 20 28 25 28 25 14 74 -11 38 -13 106 -11 299 2 236 1 252 -18 283
-21 35 -72 62 -115 62 -13 0 -39 -12 -56 -28z"/>
</g>
</svg>
