<?xml version="1.0" standalone="no"?>
<!DOCTYPE svg PUBLIC "-//W3C//DTD SVG 20010904//EN"
 "http://www.w3.org/TR/2001/REC-SVG-20010904/DTD/svg10.dtd">
<svg version="1.0" xmlns="http://www.w3.org/2000/svg"
 width="1040.000000pt" height="198.000000pt" viewBox="0 0 1040.000000 198.000000"
 preserveAspectRatio="xMidYMid meet">

<g transform="translate(0.000000,198.000000) scale(0.100000,-0.100000)"
fill="#000000" stroke="none">
<path d="M2662 1955 c-33 -42 -59 -124 -76 -238 -9 -57 -16 -110 -16 -116 0
-7 -25 -11 -71 -11 -77 0 -109 -11 -109 -39 0 -34 37 -55 103 -59 l63 -4 -12
-102 c-23 -191 -37 -440 -30 -556 12 -206 47 -322 112 -380 29 -25 43 -30 84
-30 42 0 52 4 66 25 15 23 15 37 5 129 -23 206 -11 596 27 861 l7 50 77 5 c88
6 118 23 99 58 -13 25 -61 42 -119 42 -43 0 -44 1 -39 28 14 72 28 236 23 265
-10 53 -56 89 -119 95 -49 4 -56 2 -75 -23z"/>
<path d="M5472 1955 c-33 -42 -59 -124 -76 -238 -9 -57 -16 -110 -16 -116 0
-7 -25 -11 -71 -11 -77 0 -109 -11 -109 -39 0 -34 37 -55 103 -59 l63 -4 -12
-102 c-23 -191 -37 -440 -30 -556 12 -206 47 -322 112 -380 29 -25 43 -30 84
-30 42 0 52 4 66 25 15 23 15 37 5 129 -23 206 -11 596 27 861 l7 50 77 5 c88
6 118 23 99 58 -13 25 -61 42 -119 42 -43 0 -44 1 -39 28 14 72 28 236 23 265
-10 53 -56 89 -119 95 -49 4 -56 2 -75 -23z"/>
<path d="M860 1903 c-67 -33 -155 -122 -205 -209 l-40 -67 -8 34 c-32 128 -95
206 -188 233 -65 20 -82 20 -147 1 -66 -20 -149 -95 -184 -167 -48 -98 -61
-227 -25 -256 7 -6 24 -13 38 -17 34 -8 56 14 64 63 21 122 66 206 134 246 28
16 35 17 43 5 18 -26 0 -199 -37 -354 -20 -82 -47 -197 -61 -255 -31 -130 -41
-280 -25 -347 16 -62 51 -107 102 -129 33 -15 39 -22 34 -39 -4 -11 -9 -50
-12 -87 -5 -59 -2 -73 20 -111 48 -81 174 -136 282 -122 214 26 428 286 555
673 61 187 84 322 84 487 0 151 -13 205 -69 301 -75 128 -230 179 -355 117z
m144 -121 c22 -43 29 -164 17 -288 -10 -102 -61 -337 -79 -371 -5 -8 -42 -26
-83 -40 -113 -38 -244 -111 -316 -177 -75 -68 -74 -76 -11 124 89 279 226 585
310 686 42 51 101 94 130 94 10 0 24 -13 32 -28z m-166 -929 c-80 -160 -178
-292 -256 -347 -61 -42 -76 -31 -69 45 7 83 46 157 122 232 55 55 232 173 243
163 2 -2 -16 -44 -40 -93z"/>
<path d="M4424 1541 c-61 -28 -110 -93 -138 -181 -27 -84 -46 -220 -46 -326
l0 -71 -58 -7 c-137 -16 -135 -94 3 -113 l45 -6 0 -121 c0 -209 -29 -326 -97
-393 -63 -60 -56 -109 20 -144 199 -90 335 161 312 573 l-6 116 28 6 c15 3 47
8 70 11 52 8 79 35 64 63 -14 26 -61 42 -122 42 l-49 0 -1 68 c-2 199 9 284
45 348 29 52 63 57 121 15 68 -49 145 -37 116 17 -17 32 -76 81 -121 101 -56
26 -132 26 -186 2z"/>
<path d="M8994 1541 c-61 -28 -110 -93 -138 -181 -27 -84 -46 -220 -46 -326
l0 -71 -58 -7 c-137 -16 -135 -94 3 -113 l45 -6 0 -121 c0 -209 -29 -326 -97
-393 -63 -60 -56 -109 20 -144 199 -90 335 161 312 573 l-6 116 28 6 c15 3 47
8 70 11 52 8 79 35 64 63 -14 26 -61 42 -122 42 l-49 0 -1 68 c-2 199 9 284
45 348 29 52 63 57 121 15 68 -49 145 -37 116 17 -17 32 -76 81 -121 101 -56
26 -132 26 -186 2z"/>
<path d="M1442 1434 c-33 -23 -30 -75 8 -113 37 -37 120 -58 163 -42 99 38 19
171 -103 171 -25 0 -56 -7 -68 -16z"/>
<path d="M3822 1434 c-33 -23 -30 -75 8 -113 37 -37 120 -58 163 -42 99 38 19
171 -103 171 -25 0 -56 -7 -68 -16z"/>
<path d="M9342 1434 c-33 -23 -30 -75 8 -113 37 -37 120 -58 163 -42 99 38 19
171 -103 171 -25 0 -56 -7 -68 -16z"/>
<path d="M2021 1391 c-70 -25 -101 -49 -131 -102 -33 -59 -33 -145 0 -209 12
-25 69 -90 125 -145 57 -55 111 -116 120 -135 55 -108 -33 -260 -150 -260 -75
0 -135 59 -135 133 0 32 7 45 46 83 45 43 46 45 29 64 -43 47 -131 30 -180
-35 -33 -43 -44 -122 -25 -179 30 -93 138 -181 260 -212 185 -47 352 27 410
183 53 141 3 264 -163 399 -94 76 -120 104 -148 156 -23 45 -24 79 -3 119 19
38 76 64 104 49 27 -14 27 -71 0 -95 -55 -50 16 -98 89 -61 33 18 51 54 51
105 0 114 -162 191 -299 142z"/>
<path d="M3435 1341 c-60 -27 -139 -120 -190 -225 -47 -96 -54 -93 -30 14 20
93 19 142 -6 173 -22 30 -88 52 -122 41 -59 -18 -104 -96 -134 -236 -26 -118
-26 -497 -1 -578 24 -78 62 -112 133 -118 89 -7 101 11 151 240 35 158 88 328
124 398 l18 35 7 -30 c13 -57 28 -85 60 -114 87 -76 215 -61 215 25 0 89 -67
317 -107 364 -29 35 -59 38 -118 11z"/>
<path d="M7625 1341 c-60 -27 -139 -120 -190 -225 -47 -96 -54 -93 -30 14 20
93 19 142 -6 173 -22 30 -88 52 -122 41 -59 -18 -104 -96 -134 -236 -26 -118
-26 -497 -1 -578 24 -78 62 -112 133 -118 89 -7 101 11 151 240 35 158 88 328
124 398 l18 35 7 -30 c13 -57 28 -85 60 -114 87 -76 215 -61 215 25 0 89 -67
317 -107 364 -29 35 -59 38 -118 11z"/>
<path d="M8135 1302 c-50 -24 -116 -95 -150 -162 -88 -173 -88 -441 0 -556 36
-47 105 -78 161 -71 53 6 73 22 130 106 26 39 45 59 48 50 2 -8 12 -44 21 -82
10 -37 30 -84 45 -105 46 -64 129 -90 178 -56 38 27 43 46 27 120 -24 112 -29
300 -11 477 14 143 14 162 0 197 -9 21 -27 46 -41 55 -31 21 -86 22 -116 2
-20 -13 -25 -12 -61 12 -53 35 -170 41 -231 13z m186 -113 c34 -36 33 -29 15
-152 -13 -81 -23 -113 -66 -196 -28 -55 -61 -112 -73 -127 l-21 -28 -7 25 c-4
13 -7 65 -8 115 -2 163 43 344 93 379 28 21 34 19 67 -16z"/>
<path d="M9865 1302 c-50 -24 -116 -95 -150 -162 -88 -173 -88 -441 0 -556 36
-47 105 -78 161 -71 53 6 73 22 130 106 26 39 45 59 48 50 2 -8 12 -44 21 -82
10 -37 30 -84 45 -105 46 -64 129 -90 178 -56 38 27 43 46 27 120 -24 112 -29
300 -11 477 14 143 14 162 0 197 -9 21 -27 46 -41 55 -31 21 -86 22 -116 2
-20 -13 -25 -12 -61 12 -53 35 -170 41 -231 13z m186 -113 c34 -36 33 -29 15
-152 -13 -81 -23 -113 -66 -196 -28 -55 -61 -112 -73 -127 l-21 -28 -7 25 c-4
13 -7 65 -8 115 -2 163 43 344 93 379 28 21 34 19 67 -16z"/>
<path d="M4904 1242 c-61 -38 -104 -131 -104 -222 0 -44 -3 -50 -34 -69 -68
-43 -118 -153 -120 -266 -1 -92 22 -153 79 -203 136 -119 313 -61 405 133 44
95 63 187 64 310 0 158 -33 254 -107 309 -40 29 -141 34 -183 8z m124 -81 c36
-22 51 -152 31 -266 -14 -85 -21 -93 -54 -71 -23 15 -26 22 -21 51 5 26 1 39
-19 63 -14 16 -25 41 -25 54 0 59 45 178 68 178 4 0 13 -4 20 -9z m-71 -433
c18 -7 33 -16 33 -21 0 -17 -29 -63 -59 -91 l-31 -30 0 55 c0 56 8 99 18 99 3
0 21 -5 39 -12z"/>
<path d="M5944 1242 c-61 -38 -104 -131 -104 -222 0 -44 -3 -50 -34 -69 -68
-43 -118 -153 -120 -266 -1 -92 22 -153 79 -203 136 -119 313 -61 405 133 44
95 63 187 64 310 0 158 -33 254 -107 309 -40 29 -141 34 -183 8z m124 -81 c36
-22 51 -152 31 -266 -14 -85 -21 -93 -54 -71 -23 15 -26 22 -21 51 5 26 1 39
-19 63 -14 16 -25 41 -25 54 0 59 45 178 68 178 4 0 13 -4 20 -9z m-71 -433
c18 -7 33 -16 33 -21 0 -17 -29 -63 -59 -91 l-31 -30 0 55 c0 56 8 99 18 99 3
0 21 -5 39 -12z"/>
<path d="M6536 1229 c-139 -74 -233 -281 -224 -498 4 -118 30 -179 96 -225 70
-49 193 -49 252 0 l30 26 0 -30 c0 -27 -6 -33 -64 -60 -74 -35 -147 -97 -170
-146 -20 -41 -21 -115 -3 -159 21 -50 88 -104 153 -123 98 -28 188 0 234 73
35 55 47 123 60 343 15 247 44 403 122 642 l32 97 -24 26 c-28 29 -79 41 -110
25 -12 -6 -34 -31 -49 -55 l-27 -43 -44 50 c-24 28 -58 57 -76 64 -49 21 -141
17 -188 -7z m208 -171 l40 -75 -32 -79 c-40 -97 -99 -198 -143 -243 l-33 -33
-9 28 c-11 39 -2 166 19 250 22 89 89 237 106 232 7 -2 31 -38 52 -80z m-74
-780 c-17 -118 -63 -176 -91 -114 -19 41 -2 92 46 143 25 26 47 44 49 42 3 -3
1 -35 -4 -71z"/>
<path d="M1439 1182 c-45 -40 -59 -107 -66 -307 -10 -302 28 -393 167 -403 49
-4 60 -1 85 20 28 25 28 25 14 74 -11 38 -13 106 -11 299 2 236 1 252 -18 283
-21 35 -72 62 -115 62 -13 0 -39 -12 -56 -28z"/>
<path d="M3819 1182 c-45 -40 -59 -107 -66 -307 -10 -302 28 -393 167 -403 49
-4 60 -1 85 20 28 25 28 25 14 74 -11 38 -13 106 -11 299 2 236 1 252 -18 283
-21 35 -72 62 -115 62 -13 0 -39 -12 -56 -28z"/>
<path d="M9339 1182 c-45 -40 -59 -107 -66 -307 -10 -302 28 -393 167 -403 49
-4 60 -1 85 20 28 25 28 25 14 74 -11 38 -13 106 -11 299 2 236 1 252 -18 283
-21 35 -72 62 -115 62 -13 0 -39 -12 -56 -28z"/>
</g>
</svg>
