<svg height="512pt" viewBox="0 -18 512 512" width="512pt" xmlns="http://www.w3.org/2000/svg"><path d="m512 80v180c0 .21875-.027344.429688-.03125.644531-.015625.414063-.023438.832031-.0625 1.242188-.03125.332031-.089844.65625-.136719.984375-.042969.3125-.082031.628906-.140625.9375-.070312.359375-.160156.710937-.25 1.0625-.070312.277344-.132812.554687-.214844.828125-.101562.347656-.222656.679687-.34375 1.015625-.097656.28125-.191406.558594-.304687.835937-.125.308594-.269531.601563-.40625.902344-.140625.296875-.273437.59375-.425781.882813-.144532.265624-.296875.519531-.449219.777343-.179687.308594-.355469.613281-.550781.910157-.160156.242187-.335938.46875-.507813.703124-.210937.292969-.417969.585938-.644531.867188-.203125.246094-.421875.480469-.636719.71875-.214843.242188-.425781.492188-.660156.726562-.292969.300782-.609375.578126-.925781.859376-.15625.140624-.296875.292968-.460938.425781-.019531.019531-.039062.03125-.058594.046875-.195312.164062-.40625.3125-.609374.46875-.292969.222656-.582032.453125-.886719.660156-.203125.140625-.421875.269531-.632813.402344-.316406.199218-.632812.402344-.957031.582031-.214844.121094-.441406.226563-.664063.339844-.332031.167969-.664062.332031-1.003906.484375-.230468.101562-.46875.191406-.703125.285156-.34375.136719-.6875.265625-1.039062.378906-.242188.082032-.484375.15625-.730469.226563-.363281.105469-.722656.195312-1.089844.28125-.242187.054687-.480468.109375-.726562.15625-.410156.078125-.820313.136719-1.230469.1875-.207031.027343-.410156.0625-.621094.078125-.625.0625-1.253906.097656-1.882812.097656-.003907 0-.003907 0-.007813 0 0 0 0 0-.003906 0s-.007812 0-.011719 0c-.636719 0-1.273437-.035156-1.90625-.097656-.058593-.003906-.117187-.007813-.175781-.011719-.578125-.0625-1.148438-.152344-1.714844-.261719-.113281-.023437-.222656-.039062-.335937-.0625-.53125-.113281-1.058594-.253906-1.582031-.410156-.125-.035156-.25-.070312-.375-.109375-.515626-.164063-1.027344-.355469-1.53125-.5625-.101563-.042969-.203126-.085937-.304688-.128906-.519531-.222657-1.035156-.46875-1.535156-.738281-.054688-.03125-.105469-.058594-.15625-.089844-1.058594-.578125-2.070313-1.261719-3.023438-2.042969-.035156-.027344-.070312-.054687-.105468-.082031-.441407-.367188-.867188-.753906-1.28125-1.164063-.070313-.070312-.140626-.140625-.210938-.214843-.371094-.375-.730469-.761719-1.078125-1.175782l-.097656-.117187c-.003907-.003907-.007813-.007813-.011719-.011719l-98.089844-117.019531-81.769531 103.6875c-6.839844 8.671875-19.414063 10.15625-28.089844 3.316406-8.671875-6.839844-10.15625-19.414063-3.316406-28.089844l97-123c3.726563-4.726562 9.386719-7.519531 15.402344-7.609375s11.761719 2.535156 15.628906 7.148438l78.671875 93.855468v-125.007812c0-22.054688-17.945312-40-40-40h-352c-22.054688 0-40 17.945312-40 40v262.464844l84.53125-103.144532c3.800781-4.632812 9.476562-7.320312 15.46875-7.320312h.097656c6.023438.027344 11.71875 2.773438 15.492188 7.472656l45 56c6.917968 8.609375 5.546875 21.199219-3.0625 28.117188-8.613282 6.917968-21.199219 5.546875-28.117188-3.0625l-29.5625-36.789063-86.742187 105.84375c7.109375 6.46875 16.546875 10.417969 26.894531 10.417969h96c11.046875 0 20 8.953125 20 20s-8.953125 20-20 20h-96c-44.113281 0-80-35.886719-80-80v-280c0-44.113281 35.886719-80 80-80h352c44.113281 0 80 35.886719 80 80zm-372-8c33.085938 0 60 26.914062 60 60s-26.914062 60-60 60-60-26.914062-60-60 26.914062-60 60-60zm0 40c-11.027344 0-20 8.972656-20 20s8.972656 20 20 20 20-8.972656 20-20-8.972656-20-20-20zm372 246.5v53c0 35.566406-28.933594 64.5-64.5 64.5h-36.5c-11.046875 0-20-8.953125-20-20v-142c0-11.046875 8.953125-20 20-20h36.5c35.566406 0 64.5 28.933594 64.5 64.5zm-40 0c0-13.511719-10.992188-24.5-24.5-24.5h-16.5v102h16.5c13.507812 0 24.5-10.988281 24.5-24.5zm-136-64.5c-11.046875 0-20 8.953125-20 20v51h-40v-51c0-11.046875-8.953125-20-20-20s-20 8.953125-20 20v142c0 11.046875 8.953125 20 20 20s20-8.953125 20-20v-51h40v51c0 11.046875 8.953125 20 20 20s20-8.953125 20-20v-142c0-11.046875-8.953125-20-20-20zm0 0"/></svg>